<svg xmlns="http://www.w3.org/2000/svg" fill="none" viewBox="0 0 320 128"><path fill="#fff" fill-rule="evenodd" d="M118.097 127.185H0V0h320v127.185H118.097ZM10.144 117.103h107.674V10.082H10.144v107.021Zm299.712 0H128.241V10.082h181.615v107.021ZM186.51 25.769h-10.508l-6.259 9.255-6.264-9.256h-10.508l11.431 17.15-11.431 16.903h10.843l5.929-8.893 5.924 8.893h10.843l-11.432-16.903 11.432-17.15Zm20.176.025H190.42l-.025 34.052h8.926V48.5h7.365c7.536 0 12.38-3.292 12.38-11.736 0-8.06-5.995-10.969-12.38-10.969Zm-1.365 15.834h-6v-8.726h6c2.739 0 4.798 1.285 4.798 4.481 0 3.1-2.013 4.245-4.798 4.245Zm30.376 52.64c-3.961 0-6.573-1.356-6.771-5.545l-9.327-.005c.046 9.124 7.318 12.713 15.545 12.713 7.871 0 15.596-2.894 15.596-11.917 0-6.427-5.169-8.817-10.382-10.263-1.105-.307-2.208-.571-3.259-.823-3.911-.936-7.118-1.704-7.118-3.866 0-2.329 2.505-3.024 4.509-3.024 2.86 0 5.918 1.043 5.766 4.285h9.332c-.05-8.026-7.242-11.464-14.343-11.464-6.72 0-14.596 3.04-14.596 10.818 0 6.528 5.32 8.827 10.483 10.269.922.257 1.841.488 2.731.71 4.096 1.027 7.55 1.892 7.55 4.472 0 2.632-2.912 3.64-5.716 3.64Zm-81.83-29.193h17.001c6.669 0 12.938 3.025 12.938 11.463 0 8.827-5.072 12.265-12.938 12.265h-7.674v11.862h-9.327v-35.59Zm9.327 16.55h6.269c2.911 0 5.016-1.195 5.016-4.436 0-3.342-2.155-4.688-5.016-4.688h-6.269v9.124Zm32.693-16.55h9.48l13.389 35.59h-9.728l-2.211-6.397H194.33l-2.257 6.377h-9.575l13.389-35.57Zm.604 22.332h8.115l-3.961-12.461h-.102l-4.052 12.461Zm66.82 1.316c.198 4.189 2.805 5.545 6.771 5.545 2.805 0 5.716-1.008 5.716-3.64 0-2.58-3.454-3.445-7.549-4.471-.89-.223-1.81-.454-2.731-.711-5.163-1.442-10.484-3.74-10.484-10.269 0-7.778 7.877-10.818 14.597-10.818 7.1 0 14.292 3.438 14.343 11.464h-9.332c.152-3.242-2.906-4.285-5.767-4.285-2.003 0-4.514.695-4.514 3.024 0 2.161 3.209 2.93 7.12 3.865 1.053.252 2.156.517 3.262.823 5.214 1.447 10.382 3.837 10.382 10.264 0 9.023-7.724 11.917-15.596 11.917-8.226 0-15.499-3.59-15.55-12.713l9.332.005Zm-39.944-62.929h8.921V52.22h15.982v7.627h-24.903V25.794Zm46.64 0H252.54v34.042h8.926v-12.4h6.761c4.174 0 4.752 3.533 4.99 6.966.017.151.034.363.054.617.109 1.342.312 3.855.961 4.817h8.83c-1.073-1.106-1.301-5.21-1.407-7.098a33.289 33.289 0 0 0-.034-.58c-.289-3.24-1.344-7.299-4.99-8.156v-.096c3.601-1.38 5.376-4.864 5.376-8.534 0-6.86-5.949-9.578-12-9.578Zm-1.055 14.785h-7.486v-7.702h7.101c2.485 0 4.514 1.069 4.514 3.67 0 2.6-1.441 4.032-4.129 4.032ZM50.495 56.631h2.212v-8.67h3.2v-1.87h-8.622v1.87h3.21v8.67Zm8.41-4.728v4.728h-2.212v-10.54h2.211v3.997h4.134V46.09h2.221v10.541h-2.221v-4.728h-4.134Zm9.356-3.947h5.569V46.09h-7.633v10.536h7.628v-1.86H68.26v-2.727h4.904v-1.865H68.26v-2.218Zm-35.812 10.3h2.064v10.52H32.3l-4.32-7.501h-.031v7.5h-2.07v-10.52h2.329l4.199 7.325h.04v-7.325Zm13.222 5.26c0-4.946-3.672-5.546-5.072-5.546-1.384 0-5.072.605-5.072 5.545 0 4.94 3.688 5.545 5.072 5.545 1.385 0 5.072-.6 5.072-5.545Zm-2.201-.006c0 2.944-1.679 3.675-2.87 3.675-1.193 0-2.877-.73-2.877-3.675 0-2.944 1.684-3.68 2.876-3.68s2.87.736 2.87 3.68Zm17.818 5.266h-2.21v-8.66h-3.201v-1.86h8.602v1.86h-3.19v8.66Zm6.198 0v-4.719h4.128v4.719h2.216v-10.52h-2.216v3.982h-4.128v-3.983h-2.207v10.52h2.207ZM46.61 58.256h5.351c2.815 0 3.332 2.066 3.332 2.973a2.508 2.508 0 0 1-.402 1.53 2.525 2.525 0 0 1-1.241.99c.872.379 1.35.702 1.35 2.663 0 1.537 0 1.92.466 2.097v.277h-2.45a7.136 7.136 0 0 1-.233-2.122c0-1.437-.087-1.992-1.725-1.992h-2.282v4.114H46.61v-10.53Zm4.763 4.632c1.151 0 1.709-.398 1.709-1.437 0-.554-.254-1.376-1.552-1.376h-2.754v2.813h2.597ZM39.22 81.24h2.267v-4.537h4.778v-1.91h-4.778v-2.436h5.463v-1.915h-7.73V81.24Zm8.749 0h-2.394l3.88-10.798h2.617l3.83 10.798h-2.476l-.68-2.228h-4.021l-.756 2.228Zm1.364-4.089h2.77l-1.35-4.27-1.42 4.27Zm12.734-4.545c.447.347.742.852.824 1.41l2.272.015c-.122-1.593-1.44-3.816-4.686-3.816-2.805 0-5.001 1.966-5.001 5.697 0 3.73 2.08 5.67 4.965 5.67 2.724 0 4.266-1.643 4.722-3.987h-2.272a2.295 2.295 0 0 1-.802 1.475 2.321 2.321 0 0 1-1.597.542c-1.927 0-2.698-1.75-2.698-3.685 0-3.055 1.608-3.776 2.698-3.776a2.216 2.216 0 0 1 1.575.455Zm11.798-.249H68.16v2.264h5.031v1.915h-5.03v2.798h5.705v1.906H66.05V70.442h7.816v1.915Zm5.88-.565a4.523 4.523 0 0 1 1.338 3.209v6.26H76.01V70.464h.507a4.58 4.58 0 0 1 3.228 1.328Zm22.222-.437a25.186 25.186 0 0 0-7.447-17.863 25.499 25.499 0 0 0-17.973-7.398H76v10.54h.547a15.34 15.34 0 0 1 10.712 4.391 15.154 15.154 0 0 1 4.54 10.597V81.2h10.178l-.01-9.845Zm-15.823-9.128a13.61 13.61 0 0 1 4.053 9.557l-.02 9.437H82.67V74.93a6.137 6.137 0 0 0-1.807-4.34 6.212 6.212 0 0 0-4.36-1.81h-.508V58.258h.507a13.777 13.777 0 0 1 9.641 3.968Z" clip-rule="evenodd"/></svg>